<svg xmlns="http://www.w3.org/2000/svg" version="1.1" viewBox="0.09749700874090195 0 264.87078857421875 424.03057861328125" width="266.00" height="425.00">
<g stroke-width="2.00" fill="none" stroke-linecap="butt">
<path stroke="#740f12" stroke-opacity="0.996" d="&#10;  M 133.83 0.05&#10;  L 131.18 0.37"/>
<path stroke="#740f12" stroke-opacity="0.996" d="&#10;  M 130.54 0.31&#10;  Q 131.02 0.63 130.72 0.96&#10;  Q 130.34 1.37 129.77 0.76"/>
<path stroke="#740f12" stroke-opacity="0.996" d="&#10;  M 149.24 309.93&#10;  L 146.79 309.90"/>
<path stroke="#740f12" stroke-opacity="0.996" d="&#10;  M 119.96 309.89&#10;  L 118.26 309.92"/>
<path stroke="#740f12" stroke-opacity="0.996" d="&#10;  M 50.14 159.04&#10;  L 50.12 155.51"/>
<path stroke="#740f12" stroke-opacity="0.996" d="&#10;  M 128.48 1.24&#10;  Q 129.64 1.68 129.54 0.79"/>
<path stroke="#ed8282" stroke-opacity="0.957" d="&#10;  M 95.0702 115.7793&#10;  A 37.44 36.30 -179.8 0 0 132.3833 152.2098&#10;  A 37.44 36.30 -179.8 0 0 169.9498 116.0407&#10;  A 37.44 36.30 -179.8 0 0 132.6367 79.6102&#10;  A 37.44 36.30 -179.8 0 0 95.0702 115.7793"/>
<path stroke="#091832" stroke-opacity="0.996" d="&#10;  M 72.34 302.58&#10;  C 60.83 278.25 49.20 252.71 40.20 227.19&#10;  A 0.87 0.86 -31.3 0 0 38.79 226.85&#10;  C 37.81 227.76 37.52 228.99 36.64 230.27&#10;  Q 22.38 250.97 14.76 272.23&#10;  Q 0.72 311.38 1.40 353.94&#10;  Q 1.50 360.57 8.04 361.69&#10;  C 12.52 362.45 16.28 358.23 19.29 355.05&#10;  Q 21.81 352.39 24.87 349.61&#10;  Q 36.68 338.90 38.69 336.68&#10;  Q 39.92 335.33 41.60 333.87&#10;  Q 47.68 328.59 52.03 324.13&#10;  C 59.55 316.41 65.18 311.29 71.76 305.41&#10;  A 2.41 2.41 0.0 0 0 72.34 302.58"/>
<path stroke="#091832" stroke-opacity="0.996" d="&#10;  M 193.91 303.72&#10;  A 1.69 1.68 -61.0 0 0 194.36 305.29&#10;  Q 202.89 313.86 212.22 322.60&#10;  C 225.20 334.76 235.37 344.79 251.10 359.90&#10;  C 255.23 363.86 262.17 362.45 264.02 356.93&#10;  A 1.88 1.77 -36.1 0 0 264.12 356.40&#10;  Q 265.38 324.12 256.36 287.96&#10;  Q 249.58 260.80 234.80 238.16&#10;  Q 230.62 231.78 227.46 227.37&#10;  A 1.03 0.99 55.6 0 0 226.10 227.09&#10;  Q 225.66 227.37 225.46 227.97&#10;  Q 220.58 242.64 215.64 254.73&#10;  Q 206.50 277.06 196.04 299.17&#10;  A 2.19 2.03 76.4 0 1 195.85 299.51&#10;  Q 194.35 301.89 193.91 303.72"/>
<path stroke="#091832" stroke-opacity="0.996" d="&#10;  M 133.16 422.47&#10;  C 134.37 421.98 135.01 420.65 135.81 419.68&#10;  C 152.42 399.56 167.01 375.11 161.65 347.99&#10;  Q 160.56 342.47 158.30 337.44&#10;  A 2.16 2.16 0.0 0 0 156.30 336.17&#10;  Q 133.46 336.43 109.02 336.17&#10;  Q 107.14 336.15 106.54 338.33&#10;  C 105.37 342.59 104.09 346.88 103.93 351.34&#10;  Q 103.76 355.94 103.38 359.72&#10;  A 10.14 10.01 43.2 0 0 103.48 362.47&#10;  C 104.06 365.66 104.11 368.97 104.96 372.65&#10;  Q 107.73 384.72 113.76 395.74&#10;  Q 120.29 407.67 126.63 415.41&#10;  Q 129.54 418.95 131.64 422.00&#10;  A 1.27 1.27 0.0 0 0 133.16 422.47"/>
</g>
<path fill="#02040a" fill-opacity="0.996" d="&#10;  M 133.74 0.00&#10;  Q 133.79 0.02 133.83 0.05&#10;  L 131.18 0.37&#10;  Q 131.21 0.18 131.25 0.00&#10;  L 133.74 0.00&#10;  Z"/>
<path fill="#02040a" fill-opacity="0.996" d="&#10;  M 130.54 0.31&#10;  Q 131.02 0.63 130.72 0.96&#10;  Q 130.34 1.37 129.77 0.76&#10;  Q 130.06 0.43 130.54 0.31&#10;  Z"/>
<path fill="#e61a1a" fill-opacity="0.992" d="&#10;  M 131.18 0.37&#10;  L 133.83 0.05&#10;  Q 138.32 1.90 142.42 5.09&#10;  Q 188.56 41.05 206.51 96.31&#10;  Q 208.27 101.73 210.09 109.33&#10;  Q 212.37 118.87 212.82 122.54&#10;  Q 213.99 132.16 214.04 132.39&#10;  Q 215.00 136.80 214.99 142.23&#10;  Q 214.94 158.84 214.89 163.69&#10;  A 2.23 2.21 -37.6 0 1 214.81 164.28&#10;  Q 214.31 166.15 213.78 171.98&#10;  Q 211.82 193.58 204.97 215.99&#10;  Q 190.92 261.99 166.73 301.99&#10;  Q 164.25 306.10 159.77 308.45&#10;  A 2.02 1.97 -62.4 0 1 159.16 308.65&#10;  L 149.24 309.93&#10;  L 146.79 309.90&#10;  L 119.96 309.89&#10;  L 118.26 309.92&#10;  Q 109.85 309.73 106.41 308.79&#10;  Q 104.21 308.20 101.55 305.75&#10;  Q 100.08 304.41 98.02 301.06&#10;  Q 92.36 291.81 83.93 275.31&#10;  Q 67.50 243.14 57.74 206.75&#10;  Q 54.38 194.22 52.01 178.26&#10;  Q 51.22 172.96 51.04 168.05&#10;  C 50.93 165.15 50.08 162.13 50.14 159.04&#10;  L 50.12 155.51&#10;  Q 50.08 145.84 50.11 136.16&#10;  C 50.12 134.75 50.36 133.57 50.71 132.30&#10;  A 6.32 6.20 53.9 0 0 50.93 130.81&#10;  Q 51.05 125.01 52.42 118.19&#10;  Q 65.78 51.85 117.67 8.93&#10;  Q 122.07 5.29 128.48 1.24&#10;  Q 129.64 1.68 129.54 0.79&#10;  Q 129.65 0.77 129.77 0.76&#10;  Q 130.34 1.37 130.72 0.96&#10;  Q 131.02 0.63 130.54 0.31&#10;  Q 130.94 0.22 131.18 0.37&#10;  Z&#10;  M 95.0702 115.7793&#10;  A 37.44 36.30 -179.8 0 0 132.3833 152.2098&#10;  A 37.44 36.30 -179.8 0 0 169.9498 116.0407&#10;  A 37.44 36.30 -179.8 0 0 132.6367 79.6102&#10;  A 37.44 36.30 -179.8 0 0 95.0702 115.7793&#10;  Z"/>
<path fill="#02040a" fill-opacity="0.996" d="&#10;  M 129.54 0.79&#10;  Q 129.64 1.68 128.48 1.24&#10;  L 129.54 0.79&#10;  Z"/>
<ellipse fill="#f4f3f3" fill-opacity="0.918" cx="0.00" cy="0.00" transform="translate(132.51,115.91) rotate(-179.8)" rx="37.44" ry="36.30"/>
<path fill="#02040a" fill-opacity="0.996" d="&#10;  M 50.14 159.04&#10;  L 50.12 155.51&#10;  L 50.14 159.04&#10;  Z"/>
<path fill="#02040a" fill-opacity="0.996" d="&#10;  M 40.65 225.55&#10;  Q 47.92 246.99 57.03 267.48&#10;  Q 66.03 287.69 73.61 303.24&#10;  A 1.79 1.79 0.0 0 1 73.16 305.39&#10;  Q 67.65 310.09 63.54 314.04&#10;  Q 39.93 336.80 15.22 359.98&#10;  C 13.17 361.90 10.02 363.59 6.95 362.34&#10;  Q 3.76 361.06 3.13 360.43&#10;  C 0.84 358.15 0.15 355.77 0.15 352.59&#10;  C 0.16 347.67 -0.17 341.73 0.71 336.28&#10;  C 1.31 332.62 0.57 328.98 1.59 325.76&#10;  C 2.40 323.23 1.67 320.28 2.77 317.86&#10;  C 3.29 316.71 3.04 314.45 3.37 312.58&#10;  Q 5.00 303.52 7.02 294.75&#10;  Q 14.52 262.17 32.97 234.01&#10;  Q 36.05 229.30 36.25 229.21&#10;  A 1.34 1.31 86.0 0 0 36.94 228.40&#10;  Q 37.38 227.00 39.58 225.23&#10;  A 0.68 0.68 0.0 0 1 40.65 225.55&#10;  Z&#10;  M 72.34 302.58&#10;  C 60.83 278.25 49.20 252.71 40.20 227.19&#10;  A 0.87 0.86 -31.3 0 0 38.79 226.85&#10;  C 37.81 227.76 37.52 228.99 36.64 230.27&#10;  Q 22.38 250.97 14.76 272.23&#10;  Q 0.72 311.38 1.40 353.94&#10;  Q 1.50 360.57 8.04 361.69&#10;  C 12.52 362.45 16.28 358.23 19.29 355.05&#10;  Q 21.81 352.39 24.87 349.61&#10;  Q 36.68 338.90 38.69 336.68&#10;  Q 39.92 335.33 41.60 333.87&#10;  Q 47.68 328.59 52.03 324.13&#10;  C 59.55 316.41 65.18 311.29 71.76 305.41&#10;  A 2.41 2.41 0.0 0 0 72.34 302.58&#10;  Z"/>
<path fill="#02040a" fill-opacity="0.996" d="&#10;  M 232.94 233.59&#10;  Q 233.08 234.16 233.39 234.56&#10;  Q 235.68 237.49 237.05 240.20&#10;  C 237.58 241.24 238.71 241.91 238.85 242.87&#10;  Q 238.91 243.21 239.40 244.07&#10;  Q 246.96 257.23 250.95 268.02&#10;  Q 256.29 282.49 259.42 297.56&#10;  Q 260.38 302.16 262.52 314.70&#10;  C 262.97 317.33 262.77 319.99 263.49 322.47&#10;  Q 263.94 324.04 263.86 325.56&#10;  C 263.70 328.52 264.78 331.51 264.83 334.52&#10;  Q 265.05 347.14 264.92 357.57&#10;  A 1.44 1.42 -29.3 0 1 264.70 358.33&#10;  Q 262.82 361.27 259.82 362.74&#10;  A 1.71 1.62 -56.6 0 1 259.09 362.91&#10;  L 255.30 362.91&#10;  A 5.73 5.72 -23.1 0 1 251.34 361.32&#10;  L 193.13 305.53&#10;  A 1.84 1.83 -55.0 0 1 192.76 303.39&#10;  Q 208.80 271.24 221.43 236.95&#10;  Q 222.46 234.14 223.38 231.02&#10;  Q 224.25 228.09 225.53 225.17&#10;  A 0.36 0.36 0.0 0 1 226.08 225.02&#10;  Q 227.67 226.15 229.12 228.27&#10;  Q 232.17 232.69 232.64 233.11&#10;  A 1.00 0.94 -78.8 0 1 232.94 233.59&#10;  Z&#10;  M 193.91 303.72&#10;  A 1.69 1.68 -61.0 0 0 194.36 305.29&#10;  Q 202.89 313.86 212.22 322.60&#10;  C 225.20 334.76 235.37 344.79 251.10 359.90&#10;  C 255.23 363.86 262.17 362.45 264.02 356.93&#10;  A 1.88 1.77 -36.1 0 0 264.12 356.40&#10;  Q 265.38 324.12 256.36 287.96&#10;  Q 249.58 260.80 234.80 238.16&#10;  Q 230.62 231.78 227.46 227.37&#10;  A 1.03 0.99 55.6 0 0 226.10 227.09&#10;  Q 225.66 227.37 225.46 227.97&#10;  Q 220.58 242.64 215.64 254.73&#10;  Q 206.50 277.06 196.04 299.17&#10;  A 2.19 2.03 76.4 0 1 195.85 299.51&#10;  Q 194.35 301.89 193.91 303.72&#10;  Z"/>
<path fill="#112d5a" fill-opacity="0.992" d="&#10;  M 72.34 302.58&#10;  A 2.41 2.41 0.0 0 1 71.76 305.41&#10;  C 65.18 311.29 59.55 316.41 52.03 324.13&#10;  Q 47.68 328.59 41.60 333.87&#10;  Q 39.92 335.33 38.69 336.68&#10;  Q 36.68 338.90 24.87 349.61&#10;  Q 21.81 352.39 19.29 355.05&#10;  C 16.28 358.23 12.52 362.45 8.04 361.69&#10;  Q 1.50 360.57 1.40 353.94&#10;  Q 0.72 311.38 14.76 272.23&#10;  Q 22.38 250.97 36.64 230.27&#10;  C 37.52 228.99 37.81 227.76 38.79 226.85&#10;  A 0.87 0.86 -31.3 0 1 40.20 227.19&#10;  C 49.20 252.71 60.83 278.25 72.34 302.58&#10;  Z"/>
<path fill="#112d5a" fill-opacity="0.992" d="&#10;  M 193.91 303.72&#10;  Q 194.35 301.89 195.85 299.51&#10;  A 2.19 2.03 76.4 0 0 196.04 299.17&#10;  Q 206.50 277.06 215.64 254.73&#10;  Q 220.58 242.64 225.46 227.97&#10;  Q 225.66 227.37 226.10 227.09&#10;  A 1.03 0.99 55.6 0 1 227.46 227.37&#10;  Q 230.62 231.78 234.80 238.16&#10;  Q 249.58 260.80 256.36 287.96&#10;  Q 265.38 324.12 264.12 356.40&#10;  A 1.88 1.77 -36.1 0 1 264.02 356.93&#10;  C 262.17 362.45 255.23 363.86 251.10 359.90&#10;  C 235.37 344.79 225.20 334.76 212.22 322.60&#10;  Q 202.89 313.86 194.36 305.29&#10;  A 1.69 1.68 -61.0 0 1 193.91 303.72&#10;  Z"/>
<path fill="#02040a" fill-opacity="0.996" d="&#10;  M 119.96 309.89&#10;  L 118.26 309.92&#10;  L 119.96 309.89&#10;  Z"/>
<path fill="#02040a" fill-opacity="0.996" d="&#10;  M 149.24 309.93&#10;  L 146.79 309.90&#10;  L 149.24 309.93&#10;  Z"/>
<path fill="#02040a" fill-opacity="0.996" d="&#10;  M 133.12 423.94&#10;  A 1.31 1.31 0.0 0 1 131.56 423.46&#10;  Q 129.40 420.31 126.40 416.67&#10;  Q 119.87 408.70 113.14 396.41&#10;  Q 106.93 385.06 104.08 372.63&#10;  C 103.20 368.83 103.15 365.43 102.56 362.14&#10;  A 10.45 10.31 43.2 0 1 102.45 359.31&#10;  Q 102.85 355.41 103.02 350.68&#10;  C 103.19 346.08 104.50 341.66 105.71 337.28&#10;  Q 106.33 335.03 108.26 335.05&#10;  Q 133.44 335.32 156.96 335.05&#10;  A 2.23 2.23 0.0 0 1 159.02 336.36&#10;  Q 161.35 341.54 162.47 347.23&#10;  C 167.99 375.16 152.96 400.34 135.85 421.07&#10;  C 135.03 422.06 134.37 423.44 133.12 423.94&#10;  Z&#10;  M 133.16 422.47&#10;  C 134.37 421.98 135.01 420.65 135.81 419.68&#10;  C 152.42 399.56 167.01 375.11 161.65 347.99&#10;  Q 160.56 342.47 158.30 337.44&#10;  A 2.16 2.16 0.0 0 0 156.30 336.17&#10;  Q 133.46 336.43 109.02 336.17&#10;  Q 107.14 336.15 106.54 338.33&#10;  C 105.37 342.59 104.09 346.88 103.93 351.34&#10;  Q 103.76 355.94 103.38 359.72&#10;  A 10.14 10.01 43.2 0 0 103.48 362.47&#10;  C 104.06 365.66 104.11 368.97 104.96 372.65&#10;  Q 107.73 384.72 113.76 395.74&#10;  Q 120.29 407.67 126.63 415.41&#10;  Q 129.54 418.95 131.64 422.00&#10;  A 1.27 1.27 0.0 0 0 133.16 422.47&#10;  Z"/>
<path fill="#112d5a" fill-opacity="0.992" d="&#10;  M 133.16 422.47&#10;  A 1.27 1.27 0.0 0 1 131.64 422.00&#10;  Q 129.54 418.95 126.63 415.41&#10;  Q 120.29 407.67 113.76 395.74&#10;  Q 107.73 384.72 104.96 372.65&#10;  C 104.11 368.97 104.06 365.66 103.48 362.47&#10;  A 10.14 10.01 43.2 0 1 103.38 359.72&#10;  Q 103.76 355.94 103.93 351.34&#10;  C 104.09 346.88 105.37 342.59 106.54 338.33&#10;  Q 107.14 336.15 109.02 336.17&#10;  Q 133.46 336.43 156.30 336.17&#10;  A 2.16 2.16 0.0 0 1 158.30 337.44&#10;  Q 160.56 342.47 161.65 347.99&#10;  C 167.01 375.11 152.42 399.56 135.81 419.68&#10;  C 135.01 420.65 134.37 421.98 133.16 422.47&#10;  Z"/>
</svg>